<svg id="Layer_1" data-name="Layer 1" xmlns="http://www.w3.org/2000/svg" viewBox="0 0 1311 244.49"><defs><style>.cls-1{fill:#94d347;fill-rule:evenodd;}.cls-2{fill:#4d4d4f;}</style></defs><path class="cls-1" d="M116.34,112.87c-42.78,42.65,6.12,122.73,55.81,131,53.84,9,115.91-45.77,135.76-67.81,3.91,14.6-8,39.92-29.18,62.6-29.18,31.25-74.46,39.63-117.21,44.48-32.89,3.73-58.65-10.7-82.05-38.94C27.1,181,11.51,115.58,56.19,85.71c76.65-51.23,261.85-67,329.53-11.83,30.06,24.52,21.15,67.44-3.78,120-16.22,34.19-67.9,74.39-105.89,75.91C499.41,96.26,190.58,38.87,116.34,112.87Z" transform="translate(-30 -39.22)"/><path class="cls-2" d="M544.31,184.13a5.29,5.29,0,0,0,5.39-5.38v-5c0-31.59-19.21-48.64-51.16-48.64-31.77,0-51.15,17.59-51.15,49.9,0,32.48,19.2,49.72,51.15,49.72,28.72,0,47.93-6.47,47.93-25.13a5.3,5.3,0,0,0-5.39-5.39H528a12.29,12.29,0,0,0-10.05,4.67c-3,3.77-9.7,5.92-17.23,5.92-14.72,0-21.18-6.28-22.44-20.64ZM498.54,145c13.28,0,19.75,7.18,20.28,20.64H478.08c.72-13.46,7.54-20.64,20.46-20.64Zm89.22,77.9a5.3,5.3,0,0,0,5.39-5.41v-115a5.3,5.3,0,0,0-5.39-5.41H568.2a5.29,5.29,0,0,0-5.39,5.41v115a5.29,5.29,0,0,0,5.39,5.41Zm115.43-38.77a5.28,5.28,0,0,0,5.38-5.38v-5c0-31.59-19.21-48.64-51.16-48.64-31.77,0-51.15,17.59-51.15,49.9,0,32.48,19.2,49.72,51.15,49.72,28.72,0,47.93-6.47,47.93-25.13a5.29,5.29,0,0,0-5.39-5.39h-13.1a12.29,12.29,0,0,0-10.05,4.67c-3,3.77-9.69,5.92-17.23,5.92-14.72,0-21.18-6.28-22.44-20.64ZM657.41,145c13.29,0,19.75,7.18,20.29,20.64H637c.72-13.46,7.54-20.64,20.46-20.64Zm64.27,72.52a5.29,5.29,0,0,0,5.39,5.38h19.56a5.29,5.29,0,0,0,5.39-5.38V163h31.77a5.28,5.28,0,0,0,5.38-5.38V147.15a5.28,5.28,0,0,0-5.38-5.38H752v-1.44c0-19.38,4.49-24.05,28-24.05,4.67,0,8.08,1.44,12,1.44h3.24a5.29,5.29,0,0,0,5.38-5.39v-9.69c0-2.69-2.33-4.85-5.38-5.38-5.39-1.08-15.26-1.8-23.34-1.8-37.69,0-50.26,12.56-50.26,44.87v77.19Zm116.86-12.75c-9.33,0-14.18-4.66-14.18-11,0-5.92,4.85-10.59,13.29-10.59h26.92v13.64a49.12,49.12,0,0,1-26,7.9ZM846.62,145c12,0,18,4.31,18,18.31H835.49C812,163.31,794,173.54,794,193.82s18,30.88,41.46,30.88c13.82,0,23.7-4.13,31.77-9.88v2.7a5.29,5.29,0,0,0,5.39,5.38h16.87a5.29,5.29,0,0,0,5.39-5.38V163.31c0-27.46-20.29-38.23-46.13-38.23-29.08,0-47.75,6.46-47.75,25.13a5.28,5.28,0,0,0,5.38,5.38h13.11a12.26,12.26,0,0,0,10.05-4.67c3-3.77,9.69-5.92,17-5.92ZM984,217.52a5.28,5.28,0,0,0,5.38,5.38h19.56a5.28,5.28,0,0,0,5.39-5.38V167.26c0-29.8-16.51-42.18-39.85-42.18-13.46,0-22.44,5.74-30.69,12.74v-5.56a5.3,5.3,0,0,0-5.39-5.39H918.79a5.3,5.3,0,0,0-5.39,5.39v85.26a5.29,5.29,0,0,0,5.39,5.38h19.56a5.29,5.29,0,0,0,5.39-5.38v-58.7c6.46-6.46,14.72-12.56,23.51-12.56,9.87,0,16.7,6.1,16.7,21v50.26Zm109.86,5.38c3-.54,5.38-2.69,5.38-5.38v-9.34a5.28,5.28,0,0,0-5.38-5.38h-3.24c-3.94,0-7.35,1.08-12,1.08-9.16,0-15.44-6.47-15.44-18.67V153.08h24.41a5.3,5.3,0,0,0,5.39-5.39V137.28a5.29,5.29,0,0,0-5.39-5.38h-24.41V102.49a5.31,5.31,0,0,0-5.38-5.41h-19.57a5.31,5.31,0,0,0-5.38,5.41v82.72c0,26.92,12.56,39.49,37.69,39.49,8.08,0,18-.72,23.34-1.8Zm13.11-11c0,7.54,4.31,11.85,11.85,11.85h10.77c7.53,0,11.84-4.31,11.84-11.85v-5.56c0-7.54-4.31-11.85-11.84-11.85h-10.77c-7.54,0-11.85,4.31-11.85,11.85V212Zm124-81.49a5.28,5.28,0,0,0-5.39-5.38c-19.74,0-28.89,5.38-39,12.74v-5.56a5.29,5.29,0,0,0-5.38-5.39h-19.56a5.29,5.29,0,0,0-5.39,5.39v85.26a5.28,5.28,0,0,0,5.39,5.38h19.56a5.28,5.28,0,0,0,5.38-5.38v-56c6.47-7.71,13.65-12.92,22.62-12.92,4.67,0,9.33.54,13.46.54h2.87a5.29,5.29,0,0,0,5.39-5.39V130.46Zm57.09,74.31c-15.26,0-22.62-8.79-22.62-30s7.36-29.8,22.62-29.8,22.62,8.62,22.62,29.8-7.36,30-22.62,30Zm0-79.69c-33.93,0-53,16.69-53,49.72s19,49.9,53,49.9,53-16.88,53-49.9-19-49.72-53-49.72Z" transform="translate(-30 -39.22)"/></svg>